<svg width="128" height="128" viewBox="0 0 128 128" fill="none" xmlns="http://www.w3.org/2000/svg">
<path d="M64.0001 0C65.1501 0 66.3001 0.25 67.3501 0.725L114.425 20.7C119.925 23.025 124.025 28.45 124 35C123.875 59.8 113.675 105.175 70.6001 125.8C66.4251 127.8 61.5751 127.8 57.4001 125.8C14.3251 105.175 4.12511 59.8 4.00011 35C3.97511 28.45 8.07511 23.025 13.5751 20.7L60.6751 0.725C61.7001 0.25 62.8501 0 64.0001 0ZM64.0001 16.7V111.225C98.5001 94.5 107.775 57.525 108 35.35L64.0001 16.7Z" fill="#6A26F2"/>
<path d="M66.1697 49.7118L60.9801 48.4013C60.3301 48.24 59.8502 47.6856 59.7802 47.0102C59.7102 46.3348 60.0601 45.6896 60.6501 45.3872L64.7298 43.3307L60.4101 40.0646C59.8602 39.6513 59.6302 38.9255 59.8502 38.2602C60.0701 37.5948 60.6801 37.1614 61.3701 37.1614H72.5693H75.7691H77.369C80.3888 37.1614 83.2386 38.5928 85.0484 41.0323L90.8081 48.7743C91.428 49.611 91.768 50.6291 91.768 51.6775C91.768 54.3489 89.6181 56.5162 86.9683 56.5162H84.8185C83.1186 56.5162 81.4887 55.8408 80.2888 54.6311L78.9689 53.2904H75.7691V55.4577C75.7691 57.9577 77.049 60.2864 79.1488 61.617L89.8081 68.3307C93.0179 70.3569 94.9678 73.8952 94.9678 77.7158C94.9678 83.8247 90.0581 88.7743 83.9885 88.7743H80.5688H74.1692H34.2019C33.8719 88.7743 33.5419 88.734 33.242 88.6332C32.322 88.3509 31.5721 87.6654 31.2121 86.7682C31.0721 86.4255 30.9921 86.0727 30.9721 85.6896C30.9521 85.3166 31.0021 84.9537 31.1021 84.611C31.3821 83.6836 32.062 82.9275 32.962 82.5545C33.262 82.4336 33.5819 82.3529 33.9119 82.3327L74.2992 78.6936C75.1291 78.6231 75.7691 77.9174 75.7691 77.0707C75.7691 76.6372 75.5991 76.2239 75.2991 75.9215L70.8594 71.4457C67.8596 68.4215 66.1697 64.3186 66.1697 60.0444V55.4577V49.7118ZM82.1686 44.4497C82.1686 44.4396 82.1686 44.4295 82.1686 44.4194C82.1686 44.4094 82.1686 44.3993 82.1686 44.3892V44.4497ZM82.0387 45.1957L77.399 44.0263C77.379 44.1573 77.369 44.2884 77.369 44.4194C77.369 45.7602 78.4389 46.8388 79.7688 46.8388C80.8287 46.8388 81.7187 46.1533 82.0387 45.1957ZM44.0612 48.9053C45.6911 47.4436 48.101 47.2723 49.9108 48.492L62.9699 57.2622V60.0344C62.9699 63.3408 63.8099 66.5666 65.3698 69.4094H42.1714C41.5014 69.4094 40.9014 68.986 40.6715 68.361C40.4415 67.736 40.6215 67.0202 41.1314 66.5767L48.071 60.5787L32.812 62.9477C32.112 63.0586 31.4221 62.6856 31.1221 62.0404C30.8221 61.3952 30.9721 60.619 31.5021 60.1452L44.0612 48.9053Z" fill="#DAD1ED"/>
</svg>
